<svg class="social-icon" width="49" height="48" viewBox="0 0 49 48" fill="none" xmlns="http://www.w3.org/2000/svg">
                                <g clip-path="url(#clip0_33_1092)">
                                    <path d="M38.5 0H10.5C4.978 0 0.5 4.478 0.5 10V38C0.5 43.522 4.978 48 10.5 48H38.5C44.024 48 48.5 43.522 48.5 38V10C48.5 4.478 44.024 0 38.5 0ZM16.5 38H10.5V16H16.5V38ZM13.5 13.464C11.568 13.464 10 11.884 10 9.936C10 7.988 11.568 6.408 13.5 6.408C15.432 6.408 17 7.988 17 9.936C17 11.884 15.434 13.464 13.5 13.464ZM40.5 38H34.5V26.792C34.5 20.056 26.5 20.566 26.5 26.792V38H20.5V16H26.5V19.53C29.292 14.358 40.5 13.976 40.5 24.482V38Z" fill="#0000FF"></path>
                                </g>
                                <defs>
                                    <clipPath id="clip0_33_1092">
                                        <rect width="48" height="48" fill="white" transform="translate(0.5)"></rect>
                                    </clipPath>
                                </defs>
                            </svg>