<svg width="48" height="48" viewBox="0 0 48 48" fill="currentColor" xmlns="http://www.w3.org/2000/svg">
              <path
                d="M24 4.32C30.408 4.32 31.168 4.344 33.7 4.46C40.204 4.756 43.242 7.842 43.538 14.298C43.654 16.828 43.676 17.588 43.676 23.996C43.676 30.406 43.652 31.164 43.538 33.694C43.24 40.144 40.21 43.236 33.7 43.532C31.168 43.648 30.412 43.672 24 43.672C17.592 43.672 16.832 43.648 14.302 43.532C7.782 43.234 4.76 40.134 4.464 33.692C4.348 31.162 4.324 30.404 4.324 23.994C4.324 17.586 4.35 16.828 4.464 14.296C4.762 7.842 7.792 4.754 14.302 4.458C16.834 4.344 17.592 4.32 24 4.32ZM24 0C17.482 0 16.666 0.028 14.106 0.144C5.39 0.544 0.546 5.38 0.146 14.104C0.028 16.666 0 17.482 0 24C0 30.518 0.028 31.336 0.144 33.896C0.544 42.612 5.38 47.456 14.104 47.856C16.666 47.972 17.482 48 24 48C30.518 48 31.336 47.972 33.896 47.856C42.604 47.456 47.46 42.62 47.854 33.896C47.972 31.336 48 30.518 48 24C48 17.482 47.972 16.666 47.856 14.106C47.464 5.398 42.622 0.546 33.898 0.146C31.336 0.028 30.518 0 24 0ZM24 11.676C17.194 11.676 11.676 17.194 11.676 24C11.676 30.806 17.194 36.326 24 36.326C30.806 36.326 36.324 30.808 36.324 24C36.324 17.194 30.806 11.676 24 11.676ZM24 32C19.582 32 16 28.42 16 24C16 19.582 19.582 16 24 16C28.418 16 32 19.582 32 24C32 28.42 28.418 32 24 32ZM36.812 8.31C35.22 8.31 33.93 9.6 33.93 11.19C33.93 12.78 35.22 14.07 36.812 14.07C38.402 14.07 39.69 12.78 39.69 11.19C39.69 9.6 38.402 8.31 36.812 8.31Z"
                color="blue"
              ></path>
            </svg>