<svg class="social-icon" width="49" height="48" viewBox="0 0 49 48" fill="none" xmlns="http://www.w3.org/2000/svg">
                                <g clip-path="url(#clip0_33_1090)">
                                    <path d="M24.5 4.326C30.908 4.326 31.668 4.35 34.2 4.466C40.704 4.762 43.742 7.848 44.038 14.304C44.154 16.834 44.176 17.594 44.176 24.002C44.176 30.412 44.152 31.17 44.038 33.7C43.74 40.15 40.71 43.242 34.2 43.538C31.668 43.654 30.912 43.678 24.5 43.678C18.092 43.678 17.332 43.654 14.802 43.538C8.282 43.24 5.26 40.14 4.964 33.698C4.848 31.168 4.824 30.41 4.824 24C4.824 17.592 4.85 16.834 4.964 14.302C5.262 7.848 8.292 4.76 14.802 4.464C17.334 4.35 18.092 4.326 24.5 4.326ZM24.5 0C17.982 0 17.166 0.028 14.606 0.144C5.89 0.544 1.046 5.38 0.646 14.104C0.528 16.666 0.5 17.482 0.5 24C0.5 30.518 0.528 31.336 0.644 33.896C1.044 42.612 5.88 47.456 14.604 47.856C17.166 47.972 17.982 48 24.5 48C31.018 48 31.836 47.972 34.396 47.856C43.104 47.456 47.96 42.62 48.354 33.896C48.472 31.336 48.5 30.518 48.5 24C48.5 17.482 48.472 16.666 48.356 14.106C47.964 5.398 43.122 0.546 34.398 0.146C31.836 0.028 31.018 0 24.5 0ZM24.5 11.676C17.694 11.676 12.176 17.194 12.176 24C12.176 30.806 17.694 36.326 24.5 36.326C31.306 36.326 36.824 30.808 36.824 24C36.824 17.194 31.306 11.676 24.5 11.676ZM24.5 32C20.082 32 16.5 28.42 16.5 24C16.5 19.582 20.082 16 24.5 16C28.918 16 32.5 19.582 32.5 24C32.5 28.42 28.918 32 24.5 32ZM37.312 8.31C35.72 8.31 34.43 9.6 34.43 11.19C34.43 12.78 35.72 14.07 37.312 14.07C38.902 14.07 40.19 12.78 40.19 11.19C40.19 9.6 38.902 8.31 37.312 8.31Z" fill="#0000FF"></path>
                                </g>
                                <defs>
                                    <clipPath id="clip0_33_1090">
                                        <rect width="48" height="48" fill="white" transform="translate(0.5)"></rect>
                                    </clipPath>
                                </defs>
                            </svg>