<svg width="48" height="48" viewBox="0 0 48 48" fill="none" stroke="currentColor" stroke-width="4" xmlns="http://www.w3.org/2000/svg">
  <path
    d="M44 24H32L28 30H20L16 24H4M11.4 10.22L4.5 24V36C4.5 37.0609 4.92143 38.0783 5.67157 38.8284C6.42172 39.5786 7.43913 40 8.5 40H40.5C41.5609 40 42.5783 39.5786 43.3284 38.8284C44.0786 38.0783 44.5 37.0609 44.5 36V24L37.6 10.22C37.2688 9.55358 36.7584 8.99274 36.1259 8.60055C35.4935 8.20837 34.7642 8.00039 34.02 8H14.98C14.2358 8.00039 13.5065 8.20837 12.8741 8.60055C12.2417 8.99274 11.7312 9.55358 11.4 10.22Z"
    color="blue"
  />
</svg>